HIERARCHY
ROOT hip
{
  OFFSET 0 0 0
  CHANNELS 6 Xposition Yposition Zposition Zrotation Yrotation Xrotation
  JOINT abdomen
  {
    OFFSET 0 20.6881 -0.73152
    CHANNELS 3 Zrotation Xrotation Yrotation
    JOINT chest
    {
      OFFSET 0 11.7043 -0.48768
      CHANNELS 3 Zrotation Xrotation Yrotation
      JOINT neck
      {
        OFFSET 0 22.1894 -2.19456
        CHANNELS 3 Zrotation Xrotation Yrotation
        JOINT head
        {
          OFFSET -0.24384 7.07133 1.2192
          CHANNELS 3 Zrotation Xrotation Yrotation
          JOINT leftEye
          {
            OFFSET 4.14528 8.04674 8.04672
            CHANNELS 3 Zrotation Xrotation Yrotation
            End Site
            {
              OFFSET 1 0 0
            }
          }
          JOINT rightEye
          {
            OFFSET -3.6576 8.04674 8.04672
            CHANNELS 3 Zrotation Xrotation Yrotation
            End Site
            {
              OFFSET 1 0 0
            }
          }
        }
      }
      JOINT rCollar
      {
        OFFSET -2.68224 19.2634 -4.8768
        CHANNELS 3 Zrotation Xrotation Yrotation
        JOINT rShldr
        {
          OFFSET -8.77824 -1.95073 1.46304
          CHANNELS 3 Zrotation Xrotation Yrotation
          JOINT rForeArm
          {
            OFFSET -28.1742 -1.7115 0.48768
            CHANNELS 3 Zrotation Xrotation Yrotation
            JOINT rHand
            {
              OFFSET -22.5879 0.773209 7.07136
              CHANNELS 3 Zrotation Xrotation Yrotation
              JOINT rThumb1
              {
                OFFSET -1.2192 -0.487915 3.41376
                CHANNELS 3 Zrotation Xrotation Yrotation
                JOINT rThumb2
                {
                  OFFSET -3.37035 -0.52449 3.41376
                  CHANNELS 3 Zrotation Xrotation Yrotation
                  End Site
                  {
                    OFFSET -1.78271 -1.18214 1.43049
                  }
                }
              }
              JOINT rIndex1
              {
                OFFSET -7.75947 0.938293 5.60832
                CHANNELS 3 Zrotation Xrotation Yrotation
                JOINT rIndex2
                {
                  OFFSET -2.54057 -0.884171 1.56538
                  CHANNELS 3 Zrotation Xrotation Yrotation
                  End Site
                  {
                    OFFSET -1.62519 -0.234802 1.16502
                  }
                }
              }
              JOINT rMid1
              {
                OFFSET -8.24714 1.18213 3.41376
                CHANNELS 3 Zrotation Xrotation Yrotation
                JOINT rMid2
                {
                  OFFSET -3.10165 -0.590103 1.0647
                  CHANNELS 3 Zrotation Xrotation Yrotation
                  End Site
                  {
                    OFFSET -2.48547 -0.328903 0.83742
                  }
                }
              }
              JOINT rRing1
              {
                OFFSET -8.82822 0.546677 1.51678
                CHANNELS 3 Zrotation Xrotation Yrotation
                JOINT rRing2
                {
                  OFFSET -2.60934 -0.819778 -0.0198488
                  CHANNELS 3 Zrotation Xrotation Yrotation
                  End Site
                  {
                    OFFSET -2.33842 -0.294052 0.168128
                  }
                }
              }
              JOINT rPinky1
              {
                OFFSET -8.27202 -0.0477905 -0.4584
                CHANNELS 3 Zrotation Xrotation Yrotation
                JOINT rPinky2
                {
                  OFFSET -1.82734 -0.647385 -0.700984
                  CHANNELS 3 Zrotation Xrotation Yrotation
                  End Site
                  {
                    OFFSET -1.69225 -0.51767 -0.607171
                  }
                }
              }
            }
          }
        }
      }
      JOINT lCollar
      {
        OFFSET 2.68224 19.2634 -4.8768
        CHANNELS 3 Zrotation Xrotation Yrotation
        JOINT lShldr
        {
          OFFSET 8.77824 -1.95073 1.46304
          CHANNELS 3 Zrotation Xrotation Yrotation
          JOINT lForeArm
          {
            OFFSET 28.1742 -1.7115 0.48768
            CHANNELS 3 Zrotation Xrotation Yrotation
            JOINT lHand
            {
              OFFSET 22.5879 0.773209 7.07136
              CHANNELS 3 Zrotation Xrotation Yrotation
              JOINT lThumb1
              {
                OFFSET 1.2192 -0.487915 3.41376
                CHANNELS 3 Zrotation Xrotation Yrotation
                JOINT lThumb2
                {
                  OFFSET 3.37035 -0.52449 3.41376
                  CHANNELS 3 Zrotation Xrotation Yrotation
                  End Site
                  {
                    OFFSET 1.78271 -1.18214 1.43049
                  }
                }
              }
              JOINT lIndex1
              {
                OFFSET 7.75947 0.938293 5.60832
                CHANNELS 3 Zrotation Xrotation Yrotation
                JOINT lIndex2
                {
                  OFFSET 2.54057 -0.884171 1.56538
                  CHANNELS 3 Zrotation Xrotation Yrotation
                  End Site
                  {
                    OFFSET 1.62519 -0.234802 1.16502
                  }
                }
              }
              JOINT lMid1
              {
                OFFSET 8.24714 1.18213 3.41376
                CHANNELS 3 Zrotation Xrotation Yrotation
                JOINT lMid2
                {
                  OFFSET 3.10165 -0.590103 1.0647
                  CHANNELS 3 Zrotation Xrotation Yrotation
                  End Site
                  {
                    OFFSET 2.48547 -0.328903 0.83742
                  }
                }
              }
              JOINT lRing1
              {
                OFFSET 8.82822 0.546677 1.51678
                CHANNELS 3 Zrotation Xrotation Yrotation
                JOINT lRing2
                {
                  OFFSET 2.60934 -0.819778 -0.0198488
                  CHANNELS 3 Zrotation Xrotation Yrotation
                  End Site
                  {
                    OFFSET 2.33842 -0.294052 0.168128
                  }
                }
              }
              JOINT lPinky1
              {
                OFFSET 8.27202 -0.0477905 -0.4584
                CHANNELS 3 Zrotation Xrotation Yrotation
                JOINT lPinky2
                {
                  OFFSET 1.82734 -0.647385 -0.700984
                  CHANNELS 3 Zrotation Xrotation Yrotation
                  End Site
                  {
                    OFFSET 1.69225 -0.51767 -0.607171
                  }
                }
              }
            }
          }
        }
      }
    }
  }
  JOINT rButtock
  {
    OFFSET -8.77824 4.35084 1.2192
    CHANNELS 3 Zrotation Xrotation Yrotation
    JOINT rThigh
    {
      OFFSET 0 -1.70687 -2.19456
      CHANNELS 3 Zrotation Xrotation Yrotation
      JOINT rShin
      {
        OFFSET 0 -36.8199 0.73152
        CHANNELS 3 Zrotation Xrotation Yrotation
        JOINT rFoot
        {
          OFFSET 0.73152 -45.1104 -5.12064
          CHANNELS 3 Zrotation Xrotation Yrotation
          End Site
          {
            OFFSET -1.1221 -3.69964 12.103
          }
        }
      }
    }
  }
  JOINT lButtock
  {
    OFFSET 8.77824 4.35084 1.2192
    CHANNELS 3 Zrotation Xrotation Yrotation
    JOINT lThigh
    {
      OFFSET 0 -1.70687 -2.19456
      CHANNELS 3 Zrotation Xrotation Yrotation
      JOINT lShin
      {
        OFFSET 0 -36.8199 0.73152
        CHANNELS 3 Zrotation Xrotation Yrotation
        JOINT lFoot
        {
          OFFSET -0.73152 -45.1104 -5.12064
          CHANNELS 3 Zrotation Xrotation Yrotation
          End Site
          {
            OFFSET 1.1221 -3.69964 12.103
          }
        }
      }
    }
  }
}
MOTION
Frames:	4
Frame Time:	0.00833333
55.0244 78.7301 192.46 177.06 -2.0533 -144.503 -7.3096 3.8172 -2.92424 4.78954 0.446882 -0.719975 -0.0964879 14.7828 -2.43481 1.32862 -60.4588 -9.3374 -0.0 0.0 0.0 -0.0 0.0 0.0 2.74044e-14 1.2086e-13 1.30953e-13 79.2732 0.234492 -18.2481 -9.74868 -3.98998 17.3312 -0.12613 10.0657 1.42956 9.94322e-10 6.30309e-10 -6.51235e-09 1.67089e-09 1.03165e-09 -1.12684e-08 9.94329e-10 6.30312e-10 -6.51236e-09 7.73091 5.47488 0.417314 9.9432e-10 6.3031e-10 -6.51235e-09 2.90554 0.965183 0.102902 9.94329e-10 6.3031e-10 -6.51235e-09 10.2786 0.731801 0.0259123 9.94315e-10 6.30309e-10 -6.51234e-09 2.22167 -0.733487 -0.20892 2.73129e-14 1.20862e-13 1.3067e-13 -78.8189 41.5167 20.1668 15.4346 -8.17183 -28.4885 0.0284373 -4.80958 0.677548 -5.10528e-09 8.86684e-10 3.36358e-09 -8.83374e-09 1.53805e-09 5.81105e-09 -5.10528e-09 8.86686e-10 3.36359e-09 -7.73091 5.47488 -0.417314 -5.10528e-09 8.86688e-10 3.36359e-09 -2.90554 0.965183 -0.102902 -5.10529e-09 8.86686e-10 3.36358e-09 -10.2786 0.731801 -0.0259123 -5.10528e-09 8.86686e-10 3.36358e-09 -2.22167 -0.733487 0.20892 -2.03217e-16 0.0 -3.88251e-19 5.60236 -57.8519 11.1823 -0.271835 40.7081 1.09307 -7.9678 -27.0055 -14.2396 2.03217e-16 0.0 3.88251e-19 -10.1053 -58.683 -14.4964 0.400827 42.5079 -0.732235 -0.00141162 -17.9755 -1.01164
55.2254 78.3633 192.706 177.49 -2.4733 -143.712 -6.48808 4.36477 -3.27384 4.69092 -0.0210256 -0.771842 0.0136419 14.6186 -2.47877 0.726535 -60.5612 -9.87757 -0.0 0.0 0.0 -0.0 0.0 0.0 -3.84012e-14 -1.48593e-14 2.72572e-14 79.1827 -0.262912 -18.4628 -9.67766 -3.94773 17.1986 -0.138054 10.531 1.49712 1.03444e-09 9.34248e-10 -3.03138e-09 1.76594e-09 1.58169e-09 -5.25463e-09 1.03444e-09 9.34253e-10 -3.0314e-09 7.73091 5.47488 0.417314 1.03443e-09 9.34251e-10 -3.03138e-09 2.90554 0.965183 0.102902 1.03444e-09 9.34251e-10 -3.03139e-09 10.2786 0.731801 0.0259123 1.03443e-09 9.3425e-10 -3.03138e-09 2.22167 -0.733487 -0.20892 -3.84751e-14 -1.48586e-14 2.69314e-14 -79.2218 41.5131 20.6338 15.4067 -8.14715 -28.4303 0.0267143 -4.66272 0.656765 -2.62848e-09 6.20784e-10 1.39089e-09 -4.55183e-09 1.07841e-09 2.40177e-09 -2.62848e-09 6.20785e-10 1.3909e-09 -7.73091 5.47488 -0.417314 -2.62848e-09 6.20786e-10 1.3909e-09 -2.90554 0.965183 -0.102902 -2.62849e-09 6.20785e-10 1.39089e-09 -10.2786 0.731801 -0.0259123 -2.62847e-09 6.20786e-10 1.39089e-09 -2.22167 -0.733487 0.20892 -2.03217e-16 0.0 -3.88251e-19 6.24772 -59.4673 10.9882 -0.296667 42.0367 1.14459 -8.12441 -27.4422 -14.3355 2.03217e-16 0.0 3.88251e-19 -10.195 -60.5126 -15.0669 0.439716 44.0703 -0.76773 -0.195859 -18.1077 -1.48954
55.6413 78.1245 193.272 178.676 -4.4123 -141.276 -3.88988 1.5254 -2.80221 3.96782 0.425806 -0.931315 0.0465211 14.4671 -2.51355 0.441588 -60.6704 -10.2066 -0.0 0.0 0.0 -0.0 0.0 0.0 -5.9409e-14 -9.85968e-14 -4.77083e-14 79.1203 -0.768819 -18.6484 -9.60062 -3.90222 17.0547 -0.150627 10.9959 1.56482 8.78728e-10 7.19642e-10 -8.14146e-10 1.51288e-09 1.22709e-09 -1.42201e-09 8.78734e-10 7.19647e-10 -8.14158e-10 7.73091 5.47488 0.417314 8.78725e-10 7.19646e-10 -8.14146e-10 2.90554 0.965183 0.102902 8.78737e-10 7.19645e-10 -8.14148e-10 10.2786 0.731801 0.0259123 8.78722e-10 7.19644e-10 -8.14142e-10 2.22167 -0.733487 -0.20892 -5.94681e-14 -9.85968e-14 -4.80562e-14 -79.5891 41.5508 21.0418 15.3672 -8.11221 -28.3476 0.0255293 -4.55633 0.641717 -1.05153e-09 5.35058e-10 2.35393e-11 -1.8247e-09 9.29854e-10 3.84442e-11 -1.05153e-09 5.35059e-10 2.35456e-11 -7.73091 5.47488 -0.417314 -1.05153e-09 5.35059e-10 2.35456e-11 -2.90554 0.965183 -0.102902 -1.05154e-09 5.35059e-10 2.35401e-11 -10.2786 0.731801 -0.0259123 -1.05152e-09 5.3506e-10 2.35297e-11 -2.22167 -0.733487 0.20892 -2.03217e-16 0.0 -3.88251e-19 10.3408 -63.3915 12.8468 -0.323621 43.4024 1.19728 -8.15367 -27.9163 -14.1907 2.03217e-16 0.0 3.88251e-19 -8.3815 -65.3644 -14.9134 0.490132 46.0869 -0.826257 -0.258021 -18.2907 -1.6355
57.0603 78.4099 193.914 183.377 -11.9446 -135.12 2.17642 -7.0388 -1.04136 2.1988 2.39577 -1.28758 -0.042793 14.3248 -2.54517 0.650394 -60.7834 -10.2318 -0.0 0.0 0.0 -0.0 0.0 0.0 4.20627e-15 -1.05951e-13 -9.3093e-14 79.0972 -1.27531 -18.811 -9.51611 -3.85256 16.8972 -0.163689 11.4501 1.63123 2.69947e-10 -6.94362e-10 -5.52924e-10 4.61383e-10 -1.2132e-09 -9.63783e-10 2.69953e-10 -6.94357e-10 -5.52937e-10 7.73091 5.47488 0.417314 2.69944e-10 -6.94359e-10 -5.52924e-10 2.90554 0.965183 0.102902 2.69955e-10 -6.94359e-10 -5.52926e-10 10.2786 0.731801 0.0259123 2.69941e-10 -6.94359e-10 -5.52921e-10 2.22167 -0.733487 -0.20892 4.15539e-15 -1.05952e-13 -9.34346e-14 -79.9345 41.661 21.4115 15.32 -8.07025 -28.2498 0.0252728 -4.52926 0.637892 -9.3517e-10 8.85966e-10 -5.49226e-10 -1.62097e-09 1.53554e-09 -9.52288e-10 -9.35177e-10 8.85969e-10 -5.49221e-10 -7.73091 5.47488 -0.417314 -9.35171e-10 8.85969e-10 -5.49222e-10 -2.90554 0.965183 -0.102902 -9.35175e-10 8.85969e-10 -5.49226e-10 -10.2786 0.731801 -0.0259123 -9.35164e-10 8.8597e-10 -5.49238e-10 -2.22167 -0.733487 0.20892 -2.03217e-16 0.0 -3.88251e-19 23.2941 -71.0215 20.993 -0.352493 44.8354 1.25253 -7.97814 -28.4421 -13.6733 2.03217e-16 0.0 3.88251e-19 -2.07836 -75.4111 -12.7347 0.567465 48.8845 -0.928166 -0.118727 -18.5431 -1.28816
